<mxfile host="app.diagrams.net" modified="2022-10-29T15:44:19.803Z" agent="5.0 (Macintosh; Intel Mac OS X 10_15_7) AppleWebKit/605.1.15 (KHTML, like Gecko) Version/16.1 Safari/605.1.15" etag="ivcuD921c_pkdR5U7Kbo" version="20.5.1" type="github">
  <diagram id="us2rn3E2usNwzeT_RqId" name="Страница 1">
    <mxGraphModel dx="946" dy="645" grid="1" gridSize="10" guides="1" tooltips="1" connect="1" arrows="1" fold="1" page="1" pageScale="1" pageWidth="827" pageHeight="1169" math="0" shadow="0">
      <root>
        <mxCell id="0" />
        <mxCell id="1" parent="0" />
        <mxCell id="nMol0IlKVA1DJJikbkKB-1" value="" style="whiteSpace=wrap;html=1;aspect=fixed;" parent="1" vertex="1">
          <mxGeometry x="120" y="80" width="530" height="530" as="geometry" />
        </mxCell>
        <mxCell id="nMol0IlKVA1DJJikbkKB-2" value="Кредитный&amp;nbsp;&lt;br&gt;аналитик" style="shape=umlActor;verticalLabelPosition=bottom;verticalAlign=top;html=1;outlineConnect=0;" parent="1" vertex="1">
          <mxGeometry x="40" y="500" width="30" height="60" as="geometry" />
        </mxCell>
        <mxCell id="nMol0IlKVA1DJJikbkKB-3" value="Руководитель&amp;nbsp;&lt;br&gt;крдитного&amp;nbsp;&lt;br&gt;подразделения" style="shape=umlActor;verticalLabelPosition=bottom;verticalAlign=top;html=1;outlineConnect=0;" parent="1" vertex="1">
          <mxGeometry x="40" y="200" width="30" height="60" as="geometry" />
        </mxCell>
        <mxCell id="nMol0IlKVA1DJJikbkKB-13" style="edgeStyle=orthogonalEdgeStyle;rounded=0;orthogonalLoop=1;jettySize=auto;html=1;exitX=0.5;exitY=1;exitDx=0;exitDy=0;" parent="1" source="nMol0IlKVA1DJJikbkKB-1" target="nMol0IlKVA1DJJikbkKB-1" edge="1">
          <mxGeometry relative="1" as="geometry" />
        </mxCell>
        <mxCell id="1qLVU7D7vg3zjqiWbOl6-1" value="Назначение Кредитного аналитика" style="ellipse;whiteSpace=wrap;html=1;" vertex="1" parent="1">
          <mxGeometry x="180" y="180" width="120" height="80" as="geometry" />
        </mxCell>
        <mxCell id="1qLVU7D7vg3zjqiWbOl6-2" value="Решение КА о работе с клиентом" style="ellipse;whiteSpace=wrap;html=1;" vertex="1" parent="1">
          <mxGeometry x="230" y="400" width="120" height="80" as="geometry" />
        </mxCell>
        <mxCell id="1qLVU7D7vg3zjqiWbOl6-3" value="Отправка запроса в ПЭБ" style="ellipse;whiteSpace=wrap;html=1;" vertex="1" parent="1">
          <mxGeometry x="190" y="300" width="120" height="80" as="geometry" />
        </mxCell>
        <mxCell id="1qLVU7D7vg3zjqiWbOl6-4" value="Автозаполнение первичного пакета документов" style="ellipse;whiteSpace=wrap;html=1;" vertex="1" parent="1">
          <mxGeometry x="360" y="520" width="120" height="80" as="geometry" />
        </mxCell>
        <mxCell id="1qLVU7D7vg3zjqiWbOl6-5" value="Вывод информации о объекте недвижимости&amp;nbsp;" style="ellipse;whiteSpace=wrap;html=1;" vertex="1" parent="1">
          <mxGeometry x="480" y="420" width="140" height="80" as="geometry" />
        </mxCell>
        <mxCell id="1qLVU7D7vg3zjqiWbOl6-6" value="Менеджер по &lt;br&gt;работе с клиентами" style="shape=umlActor;verticalLabelPosition=bottom;verticalAlign=top;html=1;outlineConnect=0;" vertex="1" parent="1">
          <mxGeometry x="460" y="630" width="30" height="60" as="geometry" />
        </mxCell>
        <mxCell id="1qLVU7D7vg3zjqiWbOl6-7" value="Сотрудник ЭБ" style="shape=umlActor;verticalLabelPosition=bottom;verticalAlign=top;html=1;outlineConnect=0;" vertex="1" parent="1">
          <mxGeometry x="710" y="350" width="30" height="60" as="geometry" />
        </mxCell>
        <mxCell id="1qLVU7D7vg3zjqiWbOl6-9" value="" style="endArrow=none;dashed=1;html=1;rounded=0;exitX=0.5;exitY=0.5;exitDx=0;exitDy=0;exitPerimeter=0;" edge="1" parent="1" source="nMol0IlKVA1DJJikbkKB-3" target="1qLVU7D7vg3zjqiWbOl6-1">
          <mxGeometry width="50" height="50" relative="1" as="geometry">
            <mxPoint x="430" y="360" as="sourcePoint" />
            <mxPoint x="480" y="310" as="targetPoint" />
          </mxGeometry>
        </mxCell>
        <mxCell id="1qLVU7D7vg3zjqiWbOl6-11" value="" style="endArrow=none;dashed=1;html=1;rounded=0;" edge="1" parent="1" source="nMol0IlKVA1DJJikbkKB-2" target="1qLVU7D7vg3zjqiWbOl6-3">
          <mxGeometry width="50" height="50" relative="1" as="geometry">
            <mxPoint x="430" y="360" as="sourcePoint" />
            <mxPoint x="480" y="310" as="targetPoint" />
          </mxGeometry>
        </mxCell>
        <mxCell id="1qLVU7D7vg3zjqiWbOl6-12" value="" style="endArrow=none;dashed=1;html=1;rounded=0;" edge="1" parent="1" source="1qLVU7D7vg3zjqiWbOl6-4" target="1qLVU7D7vg3zjqiWbOl6-6">
          <mxGeometry width="50" height="50" relative="1" as="geometry">
            <mxPoint x="430" y="360" as="sourcePoint" />
            <mxPoint x="480" y="310" as="targetPoint" />
          </mxGeometry>
        </mxCell>
        <mxCell id="1qLVU7D7vg3zjqiWbOl6-13" value="" style="endArrow=none;dashed=1;html=1;rounded=0;" edge="1" parent="1" source="1qLVU7D7vg3zjqiWbOl6-5" target="1qLVU7D7vg3zjqiWbOl6-7">
          <mxGeometry width="50" height="50" relative="1" as="geometry">
            <mxPoint x="430" y="360" as="sourcePoint" />
            <mxPoint x="480" y="310" as="targetPoint" />
          </mxGeometry>
        </mxCell>
        <mxCell id="1qLVU7D7vg3zjqiWbOl6-14" value="Диаграмма Вариантов использования" style="shape=document;whiteSpace=wrap;html=1;boundedLbl=1;" vertex="1" parent="1">
          <mxGeometry x="120" y="80" width="120" height="80" as="geometry" />
        </mxCell>
        <mxCell id="1qLVU7D7vg3zjqiWbOl6-16" value="" style="endArrow=none;dashed=1;html=1;rounded=0;" edge="1" parent="1" source="nMol0IlKVA1DJJikbkKB-2" target="1qLVU7D7vg3zjqiWbOl6-2">
          <mxGeometry width="50" height="50" relative="1" as="geometry">
            <mxPoint x="430" y="360" as="sourcePoint" />
            <mxPoint x="480" y="310" as="targetPoint" />
          </mxGeometry>
        </mxCell>
        <mxCell id="1qLVU7D7vg3zjqiWbOl6-17" value="Оповещение сотрудника" style="ellipse;whiteSpace=wrap;html=1;" vertex="1" parent="1">
          <mxGeometry x="415" y="210" width="120" height="80" as="geometry" />
        </mxCell>
        <mxCell id="1qLVU7D7vg3zjqiWbOl6-18" value="&amp;lt;&amp;lt;extend&amp;gt;&amp;gt;" style="html=1;verticalAlign=bottom;labelBackgroundColor=none;endArrow=open;endFill=0;dashed=1;rounded=0;exitX=0;exitY=0;exitDx=0;exitDy=0;" edge="1" parent="1" source="1qLVU7D7vg3zjqiWbOl6-17" target="1qLVU7D7vg3zjqiWbOl6-1">
          <mxGeometry width="160" relative="1" as="geometry">
            <mxPoint x="370" y="330" as="sourcePoint" />
            <mxPoint x="530" y="330" as="targetPoint" />
          </mxGeometry>
        </mxCell>
        <mxCell id="1qLVU7D7vg3zjqiWbOl6-19" value="&amp;lt;&amp;lt;extend&amp;gt;&amp;gt;" style="edgeStyle=none;html=1;startArrow=open;endArrow=none;startSize=12;verticalAlign=bottom;dashed=1;labelBackgroundColor=none;rounded=0;entryX=0.275;entryY=0.988;entryDx=0;entryDy=0;entryPerimeter=0;" edge="1" parent="1" source="1qLVU7D7vg3zjqiWbOl6-3" target="1qLVU7D7vg3zjqiWbOl6-17">
          <mxGeometry width="160" relative="1" as="geometry">
            <mxPoint x="370" y="330" as="sourcePoint" />
            <mxPoint x="530" y="330" as="targetPoint" />
          </mxGeometry>
        </mxCell>
        <mxCell id="1qLVU7D7vg3zjqiWbOl6-20" value="&amp;lt;&amp;lt;extend&amp;gt;&amp;gt;" style="edgeStyle=none;html=1;startArrow=open;endArrow=none;startSize=12;verticalAlign=bottom;dashed=1;labelBackgroundColor=none;rounded=0;" edge="1" parent="1" source="1qLVU7D7vg3zjqiWbOl6-4" target="1qLVU7D7vg3zjqiWbOl6-2">
          <mxGeometry x="-0.4518" y="-17" width="160" relative="1" as="geometry">
            <mxPoint x="370" y="390" as="sourcePoint" />
            <mxPoint x="530" y="390" as="targetPoint" />
            <mxPoint as="offset" />
          </mxGeometry>
        </mxCell>
      </root>
    </mxGraphModel>
  </diagram>
</mxfile>
